<svg width="73" height="69" viewBox="0 0 73 69" fill="none" xmlns="http://www.w3.org/2000/svg">
<g filter="url(#filter0_d_0_34)">
<path d="M52.404 36.0791C47.9356 30.6364 42.2876 27.639 36.5001 27.639C30.7125 27.639 25.0644 30.6364 20.5962 36.0791C16.5799 40.9713 14.1821 47.1369 14.1821 52.572C14.1821 55.2122 14.9822 57.2233 16.56 58.5495C18.1174 59.8586 20.1735 60.3015 22.4673 60.3013C24.9082 60.3013 27.6184 59.7999 30.2813 59.3071C32.6083 58.8764 34.8061 58.4697 36.5002 58.4697C37.9623 58.4697 40.0239 58.8557 42.2061 59.2644C47.306 60.2197 53.0866 61.3021 56.4258 58.5012C58.0133 57.1697 58.8181 55.1748 58.8181 52.572C58.8183 47.1369 56.4205 40.9713 52.404 36.0791Z" fill="#FF8A00"/>
<path d="M52.8608 6.52494C51.2259 4.09318 48.8848 2.69861 46.4377 2.69861C43.9905 2.69861 41.6496 4.09331 40.0147 6.52494C38.5129 8.75884 37.6857 11.6924 37.6857 14.7854C37.6857 17.8784 38.5127 20.812 40.0147 23.0459C41.6496 25.4776 43.9907 26.8723 46.4377 26.8723C48.8849 26.8723 51.2259 25.4776 52.8608 23.0459C54.3626 20.812 55.1898 17.8784 55.1898 14.7854C55.1898 11.6924 54.3627 8.75871 52.8608 6.52494Z" fill="#FF8A00"/>
<path d="M32.9854 6.52477C31.3505 4.09301 29.0095 2.69844 26.5624 2.69844C24.1152 2.69844 21.7741 4.09314 20.1393 6.52477C18.6375 8.75867 17.8103 11.6923 17.8103 14.7853C17.8103 17.8783 18.6374 20.8119 20.1393 23.0458C21.7742 25.4775 24.1152 26.8722 26.5624 26.8722C29.0095 26.8722 31.3505 25.4775 32.9854 23.0458C34.4872 20.8119 35.3144 17.8784 35.3144 14.7853C35.3143 11.6923 34.4872 8.75854 32.9854 6.52477Z" fill="#FF8A00"/>
<path d="M69.3201 25.4977C68.6611 23.236 67.2484 21.5925 65.3425 20.8703C63.8087 20.2891 62.0774 20.3877 60.4674 21.1478C58.2487 22.1952 56.4351 24.3581 55.4921 27.0817C54.7215 29.3073 54.6254 31.6598 55.2217 33.706C55.8807 35.9678 57.2935 37.6113 59.1995 38.3335C59.8591 38.5834 60.555 38.7076 61.2622 38.7076C62.1996 38.7076 63.1569 38.4892 64.0746 38.0559C66.2934 37.0085 68.1069 34.8457 69.05 32.1222V32.1221C69.8205 29.8966 69.9166 27.544 69.3201 25.4977Z" fill="#FF8A00"/>
<path d="M17.5082 27.0814C16.5651 24.3578 14.7515 22.1951 12.5329 21.1477C10.9228 20.3876 9.19133 20.2892 7.65772 20.8702C5.75171 21.5925 4.33899 23.236 3.67992 25.4976C3.08362 27.5439 3.17974 29.8965 3.95037 32.122V32.1221C4.89365 34.8457 6.70705 37.0084 8.92568 38.0558C9.84353 38.4891 10.8007 38.7075 11.7381 38.7075C12.4453 38.7075 13.1414 38.5832 13.8008 38.3334C15.7071 37.611 17.1197 35.9675 17.7788 33.7059C18.3748 31.6598 18.2787 29.3072 17.5082 27.0814Z" fill="#FF8A00"/>
</g>
<defs>
<filter id="filter0_d_0_34" x="-2.70667" y="0.698441" width="78.4135" height="69.6029" filterUnits="userSpaceOnUse" color-interpolation-filters="sRGB">
<feFlood flood-opacity="0" result="BackgroundImageFix"/>
<feColorMatrix in="SourceAlpha" type="matrix" values="0 0 0 0 0 0 0 0 0 0 0 0 0 0 0 0 0 0 127 0" result="hardAlpha"/>
<feOffset dy="4"/>
<feGaussianBlur stdDeviation="3"/>
<feComposite in2="hardAlpha" operator="out"/>
<feColorMatrix type="matrix" values="0 0 0 0 0 0 0 0 0 0 0 0 0 0 0 0 0 0 0.25 0"/>
<feBlend mode="normal" in2="BackgroundImageFix" result="effect1_dropShadow_0_34"/>
<feBlend mode="normal" in="SourceGraphic" in2="effect1_dropShadow_0_34" result="shape"/>
</filter>
</defs>
</svg>
